#!OML:ASF H:\Dans Jumps\Project 1\Capture day 1\Session 1\subject.ASF
:FULLY-SPECIFIED
:DEGREES
573
root 0.494344 17.5818 7.02929 7.35079 -3.60255 -1.73461
lowerback -4.70455 -0.982465 -0.12639
upperback 0.605276 -1.35006 1.43528
thorax 3.29915 -0.687916 1.44789
lowerneck -4.46267 -9.77315 -6.05019
upperneck 4.06956 -12.9269 4.75163
head 2.86534 -6.40585 2.00879
rclavicle -2.11209e-016 -2.47487e-014
rhumerus -27.6504 -18.7816 -79.0959
rradius 21.5086
rwrist 39.1267
rhand -18.6985 -26.3349
rfingers 7.12502
rthumb 7.59612 -56.1785
lclavicle -2.11209e-016 -2.47487e-014
lhumerus -29.4381 4.20065 87.504
lradius 18.6807
lwrist 4.37447
lhand -26.6837 -5.93597
lfingers 7.12502
lthumb -0.114642 24.0437
rfemur -12.702 -1.59002 19.9567
rtibia 23.6844
rfoot -16.5703 1.93295
rtoes 12.773
lfemur -10.2041 9.80498 -18.1471
ltibia 20.4841
lfoot -13.2355 8.10189
ltoes -0.497686
574
root 0.493793 17.5818 7.02926 7.35018 -3.58576 -1.74103
lowerback -4.70078 -0.976582 -0.115904
upperback 0.607077 -1.34282 1.43527
thorax 3.29845 -0.684121 1.44259
lowerneck -4.45722 -9.76168 -6.04544
upperneck 4.08582 -12.9119 4.73895
head 2.86752 -6.39872 2.00474
rclavicle -2.37051e-014 9.93923e-015
rhumerus -27.6898 -18.7974 -79.0719
rradius 21.5054
rwrist 39.1399
rhand -18.6786 -26.3342
rfingers 7.12502
rthumb 7.61534 -56.1771
lclavicle -2.37051e-014 9.93923e-015
lhumerus -29.4642 4.23233 87.4604
lradius 18.7215
lwrist 4.43641
lhand -26.5572 -5.51085
lfingers 7.12502
lthumb 0.00753993 24.4689
rfemur -12.6957 -1.59941 19.9677
rtibia 23.6778
rfoot -16.5678 1.92402
rtoes 12.7621
lfemur -10.208 9.79931 -18.1362
ltibia 20.4893
lfoot -13.2398 8.09287
ltoes -0.49532
575
root 0.493308 17.5819 7.02912 7.35024 -3.56653 -1.74137
lowerback -4.69545 -0.972344 -0.11171
upperback 0.606888 -1.33732 1.43394
thorax 3.29497 -0.681284 1.43937
lowerneck -4.44755 -9.7508 -6.04389
upperneck 4.09873 -12.8978 4.72972
head 2.86841 -6.39206 2.00257
rclavicle -4.94477e-015 3.08116e-015
rhumerus -27.7301 -18.7989 -79.0525
rradius 21.5112
rwrist 39.1387
rhand -18.6611 -26.3408
rfingers 7.12502
rthumb 7.63226 -56.183
lclavicle -4.94477e-015 3.08116e-015
lhumerus -29.4909 4.26206 87.4196
lradius 18.8007
lwrist 4.5542
lhand -26.3619 -4.85662
lfingers 7.12502
lthumb 0.196244 25.123
rfemur -12.6908 -1.61554 19.9718
rtibia 23.6709
rfoot -16.5645 1.91848
rtoes 12.7506
lfemur -10.2135 9.79438 -18.1326
ltibia 20.4942
lfoot -13.2446 8.08183
ltoes -0.500865
576
root 0.492818 17.582 7.0289 7.34953 -3.54665 -1.74713
lowerback -4.68511 -0.968139 -0.102578
upperback 0.603578 -1.33214 1.43419
thorax 3.28539 -0.6785 1.43509
lowerneck -4.43387 -9.73888 -6.04374
upperneck 4.11182 -12.8825 4.72158
head 2.86875 -6.38488 2.00125
rclavicle -1.68594e-014 6.55989e-015
rhumerus -27.7722 -18.7901 -79.0354
rradius 21.5216
rwrist 39.1318
rhand -18.6489 -26.35
rfingers 7.12502
rthumb 7.64406 -56.1918
lclavicle -1.68594e-014 6.55989e-015
lhumerus -29.5251 4.29734 87.3784
lradius 18.9019
lwrist 4.69189
lhand -26.1406 -4.10944
lfingers 7.12502
lthumb 0.409914 25.8699
rfemur -12.685 -1.63176 19.9819
rtibia 23.6638
rfoot -16.5604 1.91361
rtoes 12.7418
lfemur -10.2176 9.78795 -18.1228
ltibia 20.4984
lfoot -13.2486 8.07175
ltoes -0.509054
577
root 0.49235 17.582 7.02866 7.34816 -3.52511 -1.75268
lowerback -4.67323 -0.964622 -0.0929079
upperback 0.598738 -1.32785 1.43397
thorax 3.27336 -0.676138 1.42998
lowerneck -4.42076 -9.72629 -6.04391
upperneck 4.12711 -12.8664 4.71346
head 2.86993 -6.37725 1.99996
rclavicle 7.1314e-015 -2.88238e-015
rhumerus -27.8118 -18.7767 -79.0198
rradius 21.5324
rwrist 39.1249
rhand -18.6475 -26.3516
rfingers 7.12502
rthumb 7.64544 -56.1934
lclavicle 7.1314e-015 -2.88238e-015
lhumerus -29.5641 4.34122 87.3342
lradius 19.0031
lwrist 4.8151
lhand -25.9308 -3.41895
lfingers 7.12502
lthumb 0.612607 26.5599
rfemur -12.6786 -1.65083 19.9916
rtibia 23.6584
rfoot -16.5577 1.91139
rtoes 12.743
lfemur -10.2196 9.78099 -18.1132
ltibia 20.5001
lfoot -13.2529 8.06008
ltoes -0.515274
578
root 0.491819 17.582 7.0284 7.3468 -3.5042 -1.75741
lowerback -4.66184 -0.961216 -0.0855274
upperback 0.594129 -1.32359 1.43417
thorax 3.26191 -0.673842 1.42658
lowerneck -4.41422 -9.71245 -6.04328
upperneck 4.14396 -12.8482 4.70381
head 2.87254 -6.36854 1.99781
rclavicle 1.96797e-014 -1.82882e-014
rhumerus -27.8415 -18.7613 -79.0059
rradius 21.5404
rwrist 39.1194
rhand -18.659 -26.3405
rfingers 7.12502
rthumb 7.63427 -56.1827
lclavicle 1.96797e-014 -1.82882e-014
lhumerus -29.6036 4.38301 87.2929
lradius 19.0716
lwrist 4.88387
lhand -25.8046 -2.95533
lfingers 7.12502
lthumb 0.734511 27.0231
rfemur -12.6734 -1.66928 20.0005
rtibia 23.6537
rfoot -16.5553 1.91062
rtoes 12.7477
lfemur -10.2217 9.77442 -18.1043
ltibia 20.5013
lfoot -13.255 8.04862
ltoes -0.524529
579
root 0.491302 17.5821 7.02804 7.34594 -3.48349 -1.75971
lowerback -4.65137 -0.958163 -0.080659
upperback 0.589627 -1.31966 1.4341
thorax 3.25115 -0.671754 1.42428
lowerneck -4.41556 -9.69733 -6.04008
upperneck 4.16458 -12.8278 4.68861
head 2.87707 -6.35872 1.99308
rclavicle 1.71949e-014 -1.42131e-014
rhumerus -27.8607 -18.7498 -78.9913
rradius 21.5419
rwrist 39.122
rhand -18.6711 -26.3188
rfingers 7.12502
rthumb 7.62266 -56.1614
lclavicle 1.71949e-014 -1.42131e-014
lhumerus -29.641 4.42287 87.2523
lradius 19.104
lwrist 4.90366
lhand -25.7552 -2.73946
lfingers 7.12502
lthumb 0.782145 27.2389
rfemur -12.6696 -1.68753 20.0066
rtibia 23.6505
rfoot -16.5531 1.9115
rtoes 12.7594
lfemur -10.2248 9.76803 -18.0985
ltibia 20.5017
lfoot -13.2555 8.03752
ltoes -0.541094
580
root 0.490744 17.5821 7.02756 7.34749 -3.46371 -1.76169
lowerback -4.64446 -0.954965 -0.0765677
upperback 0.585845 -1.31552 1.43381
thorax 3.24315 -0.669581 1.42213
lowerneck -4.42267 -9.68175 -6.03196
upperneck 4.18378 -12.8064 4.66771
head 2.88124 -6.34838 1.98551
rclavicle 1.45858e-014 -2.13694e-014
rhumerus -27.8692 -18.7441 -78.9775
rradius 21.541
rwrist 39.1345
rhand -18.6796 -26.2933
rfingers 7.12502
rthumb 7.61442 -56.1362
lclavicle 1.45858e-014 -2.13694e-014
lhumerus -29.6731 4.45909 87.2104
lradius 19.0957
lwrist 4.87216
lhand -25.7933 -2.8294
lfingers 7.12502
lthumb 0.745344 27.149
rfemur -12.6688 -1.70292 20.0126
rtibia 23.6467
rfoot -16.5519 1.91009
rtoes 12.7596
lfemur -10.2329 9.7598 -18.0935
ltibia 20.5048
lfoot -13.2554 8.02813
ltoes -0.551537
